<svg width="20" height="20" viewBox="0 0 20 20" fill="none" xmlns="http://www.w3.org/2000/svg">
    <path fill-rule="evenodd" clip-rule="evenodd" d="M9.99935 18.9584C5.05768 18.9584 1.04102 14.9417 1.04102 10C1.04102 5.05835 5.05768 1.04169 9.99935 1.04169C14.941 1.04169 18.9577 5.05835 18.9577 10C18.9577 14.9417 14.941 18.9584 9.99935 18.9584ZM9.99935 2.29169C5.74935 2.29169 2.29102 5.75002 2.29102 10C2.29102 14.25 5.74935 17.7084 9.99935 17.7084C14.2493 17.7084 17.7077 14.25 17.7077 10C17.7077 5.75002 14.2493 2.29169 9.99935 2.29169ZM6.66602 10.625C6.32435 10.625 6.04102 10.3417 6.04102 10C6.04102 9.65835 6.32435 9.37502 6.66602 9.37502H9.37435V6.66669C9.37435 6.32502 9.65768 6.04169 9.99935 6.04169C10.341 6.04169 10.6243 6.32502 10.6243 6.66669V9.37502H13.3327C13.6743 9.37502 13.9577 9.65835 13.9577 10C13.9577 10.3417 13.6743 10.625 13.3327 10.625H10.6243V13.3334C10.6243 13.675 10.341 13.9584 9.99935 13.9584C9.65768 13.9584 9.37435 13.675 9.37435 13.3334V10.625H6.66602Z" fill="#4C646E"/>
</svg>
