<svg width="14" height="14" viewBox="0 0 14 14" fill="none" xmlns="http://www.w3.org/2000/svg">
    <path d="M6.73118 8.1665C7.09891 8.1665 7.47635 8.20852 7.82425 8.26837C7.54921 8.7146 7.31742 9.19538 7.31742 9.9165C7.31742 10.2838 7.38184 11.176 8.16969 11.9739C8.224 12.0289 8.59563 12.3854 9.07879 12.6075C9.44998 12.7782 9.90864 12.8332 10.2079 12.8332H1.72038C1.55704 12.8332 1.42871 12.7048 1.42871 12.5415C1.42871 10.1265 3.80871 8.1665 6.73118 8.1665ZM12.0044 12.2179C12.0147 12.3295 12.0337 12.4271 12.0337 12.5415C12.0337 12.7048 11.9053 12.8332 11.742 12.8332H10.2079C10.8967 12.8332 11.1595 12.67 11.6935 12.4347C11.7591 12.4058 12.0215 12.2043 12.0044 12.2179ZM10.2312 7.58317C10.9196 7.58317 11.5437 7.88067 11.9637 8.359C12.3371 8.77317 12.5646 9.3215 12.5646 9.9165C12.5646 10.1032 12.5412 10.284 12.4946 10.459C12.4421 10.6923 12.3488 10.9198 12.2263 11.1182C11.8238 11.7948 11.0829 12.2498 10.2312 12.2498C9.63041 12.2498 9.08791 12.0223 8.67957 11.649C8.50457 11.4973 8.35291 11.3165 8.23624 11.1182C8.02041 10.7682 7.89791 10.354 7.89791 9.9165C7.89791 9.2865 8.14874 8.709 8.55707 8.289C8.98291 7.8515 9.57791 7.58317 10.2312 7.58317ZM10.2312 8.17525C9.93447 8.17525 9.68475 8.40378 9.65059 8.69231L9.64661 8.75989V9.31334H9.06197C8.74238 9.31334 8.47734 9.57837 8.47734 9.89797C8.47734 10.1947 8.70587 10.4445 8.9944 10.4786L9.06197 10.4826H9.64661V11.0906C9.64661 11.4102 9.91164 11.6753 10.2312 11.6753C10.528 11.6753 10.7777 11.4467 10.8119 11.1582L10.8159 11.0906V10.4826H11.4005C11.7201 10.4826 11.9851 10.2176 11.9851 9.89797C11.9851 9.6012 11.7566 9.35148 11.4681 9.31732L11.4005 9.31334H10.8159V8.75989C10.8159 8.44029 10.5508 8.17525 10.2312 8.17525ZM6.73124 6.99984C8.34211 6.99984 9.64791 5.694 9.64791 4.08317C9.64791 2.47234 8.34211 1.1665 6.73124 1.1665C5.12043 1.1665 3.8146 2.47234 3.8146 4.08317C3.8146 5.694 5.12043 6.99984 6.73124 6.99984Z" fill="#132899"/>
</svg>
