<svg width="20" height="20" viewBox="0 0 20 20" fill="none" xmlns="http://www.w3.org/2000/svg">
    <path fill-rule="evenodd" clip-rule="evenodd" d="M9.44923 10.5814C6.99186 10.5814 4.99186 8.58142 4.99186 6.12405C4.99186 3.66669 6.99186 1.66669 9.44923 1.66669C11.9066 1.66669 13.9066 3.66669 13.9066 6.12405C13.9066 8.58142 11.9066 10.5814 9.44923 10.5814ZM9.44923 2.82948C7.63527 2.82948 6.15465 4.3101 6.15465 6.12405C6.15465 7.938 7.63527 9.41862 9.44923 9.41862C11.2632 9.41862 12.7438 7.938 12.7438 6.12405C12.7438 4.3101 11.2632 2.82948 9.44923 2.82948ZM2.79038 18.3333C2.47255 18.3333 2.20898 18.0698 2.20898 17.7519C2.20898 14.4418 5.45704 11.7442 9.44929 11.7442C10.1616 11.7442 10.8612 11.8276 11.542 12.0003C12.23 11.3334 13.1331 10.9691 14.1005 10.9691C15.1547 10.9691 16.1547 11.4187 16.8369 12.1939C17.4415 12.8683 17.7826 13.7365 17.7826 14.6512C17.7826 14.9458 17.7439 15.2404 17.6664 15.5194C17.5888 15.8683 17.4415 16.2326 17.24 16.5505C16.5966 17.6512 15.3873 18.3334 14.1005 18.3334C13.1857 18.3334 12.3175 17.9923 11.6431 17.3799C11.3718 17.1474 11.1315 16.8605 10.9454 16.5427C10.6043 15.9846 10.4183 15.3256 10.4183 14.6512C10.4183 14.0762 10.5493 13.5231 10.7951 13.0242C10.3566 12.9453 9.90642 12.907 9.44929 12.907C6.10045 12.907 3.37178 15.0775 3.37178 17.7519C3.37178 18.0698 3.10821 18.3333 2.79038 18.3333ZM12.2943 12.8915C12.7749 12.4031 13.4105 12.1318 14.1005 12.1318C14.8214 12.1318 15.5036 12.4342 15.9687 12.9768C16.3873 13.4419 16.6198 14.0388 16.6198 14.659C16.6198 14.8605 16.5966 15.0543 16.5423 15.2559C16.4881 15.4962 16.3873 15.7443 16.2555 15.9613C15.8059 16.7132 14.9764 17.1784 14.1005 17.1784C13.4803 17.1784 12.8834 16.9458 12.4183 16.5194C12.2322 16.3566 12.0695 16.1628 11.9454 15.9458C11.7051 15.5582 11.5811 15.1086 11.5811 14.6512C11.5811 13.9846 11.8369 13.3644 12.2943 12.8915ZM13.5189 15.2171H12.9451C12.6273 15.2171 12.3637 14.9535 12.3637 14.6357C12.3637 14.3178 12.6273 14.0543 12.9451 14.0543H13.5189V13.504C13.5189 13.1862 13.7824 12.9226 14.1003 12.9226C14.4181 12.9226 14.6817 13.1862 14.6817 13.504V14.0543H15.2629C15.5807 14.0543 15.8443 14.3178 15.8443 14.6357C15.8443 14.9535 15.5807 15.2171 15.2629 15.2171H14.6817V15.8218C14.6817 16.1474 14.4181 16.4032 14.1003 16.4032C13.7824 16.4032 13.5189 16.1396 13.5189 15.8218V15.2171Z" fill="#132899"/>
</svg>
