<svg width="16" height="16" viewBox="0 0 16 16" fill="none" xmlns="http://www.w3.org/2000/svg">
    <path fill-rule="evenodd" clip-rule="evenodd" d="M12.7129 15.1665C12.3729 15.1665 11.9996 15.0665 11.6396 14.8599L8.38622 13.0532C8.19289 12.9465 7.81289 12.9465 7.61956 13.0532L4.36622 14.8599C3.70622 15.2265 3.03289 15.2665 2.51956 14.9599C2.00622 14.6599 1.71289 14.0532 1.71289 13.2999V3.90652C1.71289 2.21319 3.09289 0.833191 4.78622 0.833191H11.2196C12.9129 0.833191 14.2929 2.21319 14.2929 3.90652V13.2999C14.2929 14.0532 13.9996 14.6599 13.4862 14.9599C13.2529 15.0999 12.9862 15.1665 12.7129 15.1665ZM7.99956 11.9732C8.31289 11.9732 8.61956 12.0399 8.86622 12.1799L12.1196 13.9865C12.4596 14.1799 12.7729 14.2199 12.9729 14.0999C13.1729 13.9799 13.2862 13.6932 13.2862 13.2999V3.90652C13.2862 2.76652 12.3529 1.83319 11.2129 1.83319H4.78622C3.64622 1.83319 2.71289 2.76652 2.71289 3.90652V13.2999C2.71289 13.6932 2.82622 13.9865 3.02622 14.0999C3.22622 14.2132 3.53289 14.1799 3.87956 13.9865L7.13289 12.1799C7.37956 12.0399 7.68622 11.9732 7.99956 11.9732ZM7.99951 6.85323C7.31951 6.85323 6.63951 6.73323 5.99285 6.49989C5.73285 6.40656 5.59951 6.11989 5.69285 5.85989C5.79285 5.59989 6.07951 5.46656 6.33951 5.55989C7.41285 5.94656 8.59285 5.94656 9.66618 5.55989C9.92618 5.46656 10.2128 5.59989 10.3062 5.85989C10.3995 6.11989 10.2662 6.40656 10.0062 6.49989C9.35951 6.73323 8.67951 6.85323 7.99951 6.85323Z" fill="#4C646E"/>
</svg>
