<svg width="24" height="24" viewBox="0 0 24 24" fill="none" xmlns="http://www.w3.org/2000/svg">
    <path fill-rule="evenodd" clip-rule="evenodd" d="M2 12C2 17.5163 6.48372 22 12 22C17.5163 22 22 17.5163 22 12C22 6.48372 17.5163 2 12 2C6.48372 2 2 6.48372 2 12ZM3.39535 12C3.39535 7.25581 7.25581 3.39535 12 3.39535C16.7442 3.39535 20.6047 7.25581 20.6047 12C20.6047 16.7442 16.7442 20.6047 12 20.6047C7.25581 20.6047 3.39535 16.7442 3.39535 12ZM10.3812 16.2604C10.8742 16.7534 11.5347 17.0046 12.1858 17.0046C12.8463 17.0046 13.4975 16.7534 13.9998 16.2418L16.0649 14.1767C17.7858 12.4557 17.7858 9.64644 16.0649 7.92551C14.344 6.20458 11.5347 6.20458 9.81375 7.92551L7.56255 10.1767C6.82766 10.9116 6.42769 11.8883 6.42769 12.9302C6.42769 13.972 6.82766 14.9488 7.56255 15.6836C7.83231 15.9534 8.27882 15.9534 8.54859 15.6836C8.81836 15.4139 8.81836 14.9674 8.54859 14.6976C8.07417 14.2325 7.81373 13.5999 7.81373 12.9395C7.81373 12.279 8.07417 11.6557 8.54859 11.1813L10.7998 8.93018C11.9812 7.74878 13.8974 7.74878 15.0788 8.93018C16.2602 10.1116 16.2602 12.0278 15.0788 13.2092L13.0138 15.2743C12.5579 15.7302 11.823 15.7302 11.3672 15.2743C11.144 15.0604 11.023 14.7627 11.023 14.4558C11.023 14.1488 11.144 13.8604 11.3672 13.6371L12.6788 12.3255C12.9486 12.0558 12.9486 11.6092 12.6788 11.3395C12.4091 11.0697 11.9625 11.0697 11.6928 11.3395L10.3812 12.6511C9.89746 13.1255 9.62769 13.7767 9.62769 14.4558C9.62769 15.1348 9.89746 15.7767 10.3812 16.2604Z" fill="#4C646E"/>
</svg>
