<svg width="20" height="20" viewBox="0 0 20 20" fill="none" xmlns="http://www.w3.org/2000/svg">
    <path fill-rule="evenodd" clip-rule="evenodd" d="M13.3327 18.9583H2.49935C1.69935 18.9583 1.04102 18.3 1.04102 17.5V6.66666C1.04102 2.98332 2.98268 1.04166 6.66602 1.04166H13.3327C17.016 1.04166 18.9577 2.98332 18.9577 6.66666V13.3333C18.9577 17.0167 17.016 18.9583 13.3327 18.9583ZM6.66602 2.29166C3.68268 2.29166 2.29102 3.68332 2.29102 6.66666V17.5C2.29102 17.6167 2.38268 17.7083 2.49935 17.7083H13.3327C16.316 17.7083 17.7077 16.3167 17.7077 13.3333V6.66666C17.7077 3.68332 16.316 2.29166 13.3327 2.29166H6.66602ZM14.166 8.54166H5.83268C5.49102 8.54166 5.20768 8.25832 5.20768 7.91666C5.20768 7.57499 5.49102 7.29166 5.83268 7.29166H14.166C14.5077 7.29166 14.791 7.57499 14.791 7.91666C14.791 8.25832 14.5077 8.54166 14.166 8.54166ZM5.83268 12.7083H11.666C12.0077 12.7083 12.291 12.425 12.291 12.0833C12.291 11.7417 12.0077 11.4583 11.666 11.4583H5.83268C5.49102 11.4583 5.20768 11.7417 5.20768 12.0833C5.20768 12.425 5.49102 12.7083 5.83268 12.7083Z" fill="#132899"/>
</svg>
