<svg width="25" height="24" viewBox="0 0 25 24" fill="none" xmlns="http://www.w3.org/2000/svg">
<path fill-rule="evenodd" clip-rule="evenodd" d="M17.09 1.75C14.12 1.75 11.71 4.16 11.71 7.13C11.71 10.1 14.12 12.51 17.09 12.51C20.06 12.51 22.47 10.1 22.47 7.13C22.47 4.16 20.06 1.75 17.09 1.75ZM7 10C4.52703 10 2.5 12.0135 2.5 14.5C2.5 16.9865 4.51351 19 7 19C9.47297 19 11.5 16.9865 11.5 14.5C11.5 12.0135 9.47297 10 7 10ZM12.5 18C12.5 15.7936 14.2936 14 16.5 14C18.7064 14 20.5 15.7936 20.5 18C20.5 20.2064 18.7064 22 16.5 22C14.2936 22 12.5 20.2064 12.5 18Z" fill="#4C646E"/>
</svg>
