<svg width="17" height="18" viewBox="0 0 17 18" fill="none" xmlns="http://www.w3.org/2000/svg">
<path fill-rule="evenodd" clip-rule="evenodd" d="M12.4401 0.5C9.93938 0.5 7.91026 2.53577 7.91026 5.0447C7.91026 7.55362 9.93938 9.5894 12.4401 9.5894C14.9408 9.5894 16.97 7.55362 16.97 5.0447C16.97 2.53577 14.9408 0.5 12.4401 0.5ZM9.11715 5.0447C9.11715 3.2045 10.6059 1.71084 12.4401 1.71084C14.2743 1.71084 15.7631 3.2045 15.7631 5.0447C15.7631 6.88489 14.2743 8.37855 12.4401 8.37855C10.6059 8.37855 9.11715 6.88489 9.11715 5.0447ZM4.32181 7.15964C2.22138 7.15964 0.5 8.87496 0.5 10.994C0.5 13.1126 2.21011 14.8283 4.32181 14.8283C6.42224 14.8283 8.14362 13.113 8.14362 10.994C8.14362 8.87496 6.42224 7.15964 4.32181 7.15964ZM1.70689 10.994C1.70689 9.54602 2.8856 8.37048 4.32181 8.37048C5.75802 8.37048 6.93673 9.54602 6.93673 10.994C6.93673 12.4419 5.75802 13.6175 4.32181 13.6175C2.87666 13.6175 1.70689 12.4439 1.70689 10.994ZM11.9654 10.3886C10.0791 10.3886 8.54592 11.9267 8.54592 13.8193C8.54592 15.7118 10.0791 17.25 11.9654 17.25C13.8518 17.25 15.3849 15.7118 15.3849 13.8193C15.3849 11.9267 13.8518 10.3886 11.9654 10.3886ZM9.7528 13.8193C9.7528 12.5955 10.7456 11.5994 11.9654 11.5994C13.1852 11.5994 14.1781 12.5955 14.1781 13.8193C14.1781 15.0431 13.1852 16.0392 11.9654 16.0392C10.7456 16.0392 9.7528 15.0431 9.7528 13.8193Z" fill="#243138"/>
</svg>
