<svg width="18" height="16" viewBox="0 0 18 16" fill="none" xmlns="http://www.w3.org/2000/svg">
<path fill-rule="evenodd" clip-rule="evenodd" d="M13.1665 15.5H7.56654C6.21654 15.5 4.92487 14.925 4.02487 13.9333L1.0832 10.7C-0.316797 9.16667 -0.316797 6.85 1.0832 5.30833L4.02487 2.075C4.92487 1.075 6.21654 0.5 7.56654 0.5H13.1665C15.8082 0.5 17.9582 2.65 17.9582 5.29167V10.7083C17.9582 13.35 15.8082 15.5 13.1665 15.5ZM7.56654 1.75C6.57487 1.75 5.61654 2.175 4.94987 2.90833L1.99987 6.15C1.04154 7.20833 1.04154 8.8 1.99987 9.85833L4.94154 13.0917C5.6082 13.825 6.56654 14.25 7.5582 14.25H13.1665C15.1165 14.25 16.7082 12.6583 16.7082 10.7083V5.29167C16.7082 3.34167 15.1165 1.75 13.1665 1.75H7.56654ZM12.3332 10.6833C12.1749 10.6833 12.0165 10.625 11.8915 10.5L10.2765 8.88167L8.65821 10.5C8.53321 10.625 8.37488 10.6833 8.21655 10.6833C8.05821 10.6833 7.89988 10.625 7.77488 10.5C7.53321 10.2583 7.53321 9.85831 7.77488 9.61664L9.39408 7.99744L7.77488 6.37497C7.53321 6.1333 7.53321 5.7333 7.77488 5.49163C8.01654 5.24997 8.41654 5.24997 8.65821 5.49163L10.2774 7.11411L11.8915 5.49998C12.1332 5.25831 12.5332 5.25831 12.7749 5.49998C13.0165 5.74164 13.0165 6.14164 12.7749 6.38331L11.1599 7.99834L12.7749 9.61663C13.0165 9.8583 13.0165 10.2583 12.7749 10.5C12.6499 10.625 12.4915 10.6833 12.3332 10.6833Z" fill="#77919B"/>
</svg>
