<svg width="16" height="16" viewBox="0 0 16 16" fill="none" xmlns="http://www.w3.org/2000/svg">
<path fill-rule="evenodd" clip-rule="evenodd" d="M0.486372 15.5082C0.821801 15.8435 1.24668 16 1.67155 16C2.09643 16 2.54367 15.8435 2.85674 15.5082L7.99998 10.3667L13.1432 15.5082C13.4787 15.8435 13.9035 16 14.3284 16C14.7533 16 15.1782 15.8435 15.5136 15.5082C16.1621 14.8599 16.1621 13.7869 15.5136 13.1387L10.3703 7.9972L15.5136 2.85574C16.1621 2.20747 16.1621 1.13447 15.5136 0.486203C14.8651 -0.162068 13.7917 -0.162068 13.1432 0.486203L7.99998 5.62766L2.85674 0.486203C2.20824 -0.162068 1.13487 -0.162068 0.486372 0.486203C-0.162124 1.13447 -0.162124 2.20747 0.486372 2.85574L5.62962 7.9972L0.486372 13.1387C-0.162124 13.7869 -0.162124 14.8599 0.486372 15.5082Z" fill="#4C646E"/>
</svg>
