<svg width="14" height="14" viewBox="0 0 14 14" fill="none" xmlns="http://www.w3.org/2000/svg">
    <path d="M9.91699 1.41748H4.08366C2.33366 1.41748 1.16699 2.58415 1.16699 4.33415V7.83415C1.16699 9.58415 2.33366 10.7508 4.08366 10.7508H6.41699L9.01283 12.4775C9.39783 12.7341 9.91699 12.46 9.91699 11.9933V10.7508C11.667 10.7508 12.8337 9.58415 12.8337 7.83415V4.33415C12.8337 2.58415 11.667 1.41748 9.91699 1.41748ZM9.04199 6.56248H4.95866C4.71949 6.56248 4.52116 6.36415 4.52116 6.12498C4.52116 5.88581 4.71949 5.68748 4.95866 5.68748H9.04199C9.28116 5.68748 9.47949 5.88581 9.47949 6.12498C9.47949 6.36415 9.28116 6.56248 9.04199 6.56248Z" fill="#132899"/>
</svg>
