<svg width="16" height="16" viewBox="0 0 16 16" fill="none" xmlns="http://www.w3.org/2000/svg">
    <path fill-rule="evenodd" clip-rule="evenodd" d="M10.0207 14.6865C10.214 14.8132 10.4407 14.8799 10.6673 14.8799C10.854 14.8799 11.0473 14.8332 11.2206 14.7398C11.6006 14.5398 11.834 14.1465 11.834 13.7132V12.7665C13.8473 12.5599 15.1673 11.0799 15.1673 8.95986V4.95986C15.1673 2.66653 13.6273 1.12653 11.334 1.12653H4.66732C2.37398 1.12653 0.833984 2.66653 0.833984 4.95986V8.95986C0.833984 11.2532 2.37398 12.7932 4.66732 12.7932H7.18064L10.0207 14.6865ZM1.83398 4.95319C1.83398 3.23319 2.94732 2.11985 4.66732 2.11985H11.3407C13.0607 2.11985 14.174 3.23319 14.174 4.95319V8.95319C14.174 10.6732 13.0607 11.7865 11.3407 11.7865C11.0673 11.7865 10.8407 12.0132 10.8407 12.2865V13.7065C10.8407 13.7932 10.7873 13.8332 10.754 13.8532C10.7207 13.8732 10.654 13.8932 10.5806 13.8465L7.61399 11.8732C7.52733 11.8132 7.43398 11.7865 7.33398 11.7865H4.66732C2.94732 11.7865 1.83398 10.6732 1.83398 8.95319V4.95319ZM5.66732 7.4999H10.334C10.6073 7.4999 10.834 7.27323 10.834 6.9999C10.834 6.72656 10.6073 6.4999 10.334 6.4999H5.66732C5.39398 6.4999 5.16732 6.72656 5.16732 6.9999C5.16732 7.27323 5.39398 7.4999 5.66732 7.4999Z" fill="#4C646E"/>
</svg>
