<svg width="20" height="20" viewBox="0 0 20 20" fill="none" xmlns="http://www.w3.org/2000/svg">
    <path fill-rule="evenodd" clip-rule="evenodd" d="M7.47997 6.04684C7.47997 4.74759 7.74338 3.98937 8.19147 3.54128C8.63955 3.09319 9.39778 2.82978 10.697 2.82978H13.9528C15.2521 2.82978 16.0103 3.09319 16.4584 3.54128C16.9065 3.98937 17.1699 4.74759 17.1699 6.04684V9.30265C17.1699 10.6019 16.9065 11.3601 16.4584 11.8082C16.0103 12.2563 15.2521 12.5197 13.9528 12.5197H13.6815V10.698C13.6815 9.28407 13.4023 8.14307 12.6294 7.37022C11.8566 6.59738 10.7156 6.31816 9.30167 6.31816H7.47997V6.04684ZM6.31718 6.31815V6.04684C6.31718 4.63291 6.5964 3.49191 7.36925 2.71906C8.14209 1.94622 9.28309 1.66699 10.697 1.66699H13.9528C15.3668 1.66699 16.5078 1.94622 17.2806 2.71906C18.0535 3.49191 18.3327 4.63291 18.3327 6.04684V9.30265C18.3327 10.7166 18.0535 11.8576 17.2806 12.6304C16.5078 13.4033 15.3668 13.6825 13.9528 13.6825H13.6815V13.9538C13.6815 15.3677 13.4023 16.5087 12.6294 17.2816C11.8566 18.0544 10.7156 18.3337 9.30167 18.3337H6.04586C4.63193 18.3337 3.49093 18.0544 2.71809 17.2816C1.94524 16.5087 1.66602 15.3677 1.66602 13.9538V10.698C1.66602 9.28407 1.94524 8.14307 2.71809 7.37022C3.49093 6.59738 4.63193 6.31815 6.04586 6.31815H6.31718ZM6.89782 7.48095H6.04586C4.74661 7.48095 3.98839 7.74436 3.5403 8.19244C3.09222 8.64053 2.82881 9.39875 2.82881 10.698V13.9538C2.82881 15.2531 3.09222 16.0113 3.5403 16.4594C3.98839 16.9075 4.74661 17.1709 6.04586 17.1709H9.30167C10.6009 17.1709 11.3591 16.9075 11.8072 16.4594C12.2553 16.0113 12.5187 15.2531 12.5187 13.9538L12.5187 13.1011V10.698C12.5187 9.72356 12.3706 9.05345 12.1074 8.59026C12.0197 8.43587 11.9193 8.30446 11.8072 8.19244C11.3591 7.74436 10.6009 7.48095 9.30167 7.48095H6.89857C6.89832 7.48095 6.89807 7.48095 6.89782 7.48095Z" fill="#4C646E"/>
</svg>
