<svg width="20" height="20" viewBox="0 0 20 20" fill="none" xmlns="http://www.w3.org/2000/svg">
    <path fill-rule="evenodd" clip-rule="evenodd" d="M6.64915 2.95002L6.47104 4.01059C5.68988 4.053 4.91025 4.11271 4.13241 4.19167L2.43241 4.35833C2.09074 4.39167 1.84074 4.69167 1.87408 5.04167C1.90741 5.39167 2.21574 5.64167 2.56574 5.60833L4.26574 5.44167C8.62408 5 13.0241 5.16667 17.4324 5.60833H17.4991C17.8157 5.60833 18.0907 5.36667 18.1157 5.04167C18.1491 4.7 17.8991 4.39167 17.5574 4.35833C16.2147 4.22655 14.8727 4.11851 13.5328 4.04372L13.5325 4.04169L13.3492 2.95835L13.3484 2.95346C13.2234 2.1868 13.0367 1.04169 11.0908 1.04169H8.90749C6.96721 1.04169 6.78275 2.14844 6.64944 2.94831L6.64915 2.95002ZM12.1242 3.16669L12.2623 3.98306C10.7543 3.92357 9.24943 3.91014 7.74964 3.95635L7.89082 3.15835L7.89208 3.15086C8.01594 2.4159 8.03547 2.30002 8.91582 2.30002H11.0992C11.9825 2.30002 12.0075 2.44169 12.1242 3.16669ZM7.32406 18.9584H12.6741C15.5824 18.9584 15.6991 17.3501 15.7907 16.0501L16.3324 7.65842C16.3574 7.30842 16.0907 7.01675 15.7491 6.99175C15.4074 6.97508 15.1074 7.23342 15.0824 7.57508L14.5407 15.9668C14.4574 17.2334 14.4241 17.7084 12.6741 17.7084H7.32406C5.58344 17.7084 5.5491 17.234 5.45756 15.969L5.45739 15.9668L4.91573 7.57508C4.89073 7.23342 4.59906 6.97508 4.24906 6.99175C3.90739 7.01675 3.64073 7.31675 3.66573 7.65842L4.20739 16.0501C4.29906 17.3501 4.41573 18.9584 7.32406 18.9584ZM11.3825 14.375H8.60754C8.26588 14.375 7.98254 14.0917 7.98254 13.75C7.98254 13.4084 8.26588 13.125 8.60754 13.125H11.3825C11.7242 13.125 12.0075 13.4084 12.0075 13.75C12.0075 14.0917 11.7242 14.375 11.3825 14.375ZM7.91581 11.0417H12.0825C12.4241 11.0417 12.7075 10.7584 12.7075 10.4167C12.7075 10.075 12.4241 9.79169 12.0825 9.79169H7.91581C7.57415 9.79169 7.29081 10.075 7.29081 10.4167C7.29081 10.7584 7.57415 11.0417 7.91581 11.0417Z" fill="#FF3850"/>
</svg>
