<svg width="24" height="24" viewBox="0 0 24 24" fill="none" xmlns="http://www.w3.org/2000/svg">
    <path fill-rule="evenodd" clip-rule="evenodd" d="M9.2093 22H14.7907C19.8419 22 22 19.8419 22 14.7907V10.1395C22 10.0275 21.9727 9.92109 21.9245 9.82667C21.8916 9.76052 21.8483 9.69941 21.7953 9.6465L14.3535 2.20464C14.3337 2.18577 14.3131 2.1681 14.2917 2.1517C14.1725 2.05697 14.0223 2 13.8605 2H9.2093C4.15814 2 2 4.15814 2 9.2093V14.7907C2 19.8419 4.15814 22 9.2093 22ZM13.1628 3.39535H9.2093C4.92093 3.39535 3.39535 4.92093 3.39535 9.2093V14.7907C3.39535 19.0791 4.92093 20.6047 9.2093 20.6047H14.7907C19.0791 20.6047 20.6047 19.0791 20.6047 14.7907V10.8372H17.5814C14.4 10.8372 13.1628 9.59999 13.1628 6.41859V3.39535ZM14.5581 6.41859V4.38138L19.6186 9.44185H17.5814C15.1814 9.44185 14.5581 8.81859 14.5581 6.41859ZM12.9302 13.6279H7.34884C6.96744 13.6279 6.65116 13.3116 6.65116 12.9302C6.65116 12.5488 6.96744 12.2326 7.34884 12.2326H12.9302C13.3116 12.2326 13.6279 12.5488 13.6279 12.9302C13.6279 13.3116 13.3116 13.6279 12.9302 13.6279ZM6.65116 16.6512C6.65116 17.0326 6.96744 17.3488 7.34884 17.3488H11.0698C11.4512 17.3488 11.7674 17.0326 11.7674 16.6512C11.7674 16.2698 11.4512 15.9535 11.0698 15.9535H7.34884C6.96744 15.9535 6.65116 16.2698 6.65116 16.6512Z" fill="#4C646E"/>
</svg>
