<svg width="16" height="16" viewBox="0 0 16 16" fill="none" xmlns="http://www.w3.org/2000/svg">
    <path d="M6.22013 3.49988L9.78013 3.49988C11.0335 3.49988 11.9868 3.95321 12.4601 4.77321C12.9335 5.59321 12.8468 6.64654 12.2201 7.73321L10.4401 10.8199C9.81347 11.8999 8.9468 12.4999 8.00013 12.4999C7.05347 12.4999 6.1868 11.8999 5.56013 10.8132L3.78013 7.72654C3.15347 6.63988 3.0668 5.58654 3.54013 4.76654C4.01347 3.95321 4.9668 3.49988 6.22013 3.49988ZM8.00013 11.4999C8.57347 11.4999 9.13347 11.0799 9.57347 10.3132L11.3535 7.22654C11.7935 6.45988 11.8801 5.76654 11.5935 5.26654C11.3068 4.76654 10.6601 4.49321 9.78013 4.49321L6.22013 4.49321C5.34013 4.49321 4.69347 4.76654 4.4068 5.26654C4.12013 5.76654 4.2068 6.45988 4.6468 7.22654L6.4268 10.3132C6.8668 11.0799 7.4268 11.4999 8.00013 11.4999Z" fill="#4C646E"/>
</svg>
