<svg width="20" height="20" viewBox="0 0 20 20" fill="none" xmlns="http://www.w3.org/2000/svg">
    <path fill-rule="evenodd" clip-rule="evenodd" d="M9.99935 2.8584C12.966 2.8584 15.7827 4.60006 17.7077 7.62506C18.541 8.9334 18.541 11.0667 17.7077 12.3667C16.741 13.8834 15.5577 15.0751 14.241 15.8917C12.9243 16.7001 11.4827 17.1334 9.99935 17.1334C7.03268 17.1334 4.21602 15.4001 2.29102 12.3667C1.45768 11.0584 1.45768 8.9334 2.29102 7.62506C3.25768 6.1084 4.44102 4.91673 5.75768 4.10007C7.07435 3.29173 8.51602 2.8584 9.99935 2.8584ZM6.63268 10.0001C6.63268 11.8584 8.13268 13.3667 9.99935 13.3667C11.866 13.3667 13.366 11.8584 13.366 10.0001C13.366 8.14173 11.866 6.6334 9.99935 6.6334C8.13268 6.6334 6.63268 8.14173 6.63268 10.0001ZM7.62427 10C7.62427 8.68337 8.69093 7.6167 9.99927 7.6167C11.3076 7.6167 12.3826 8.6917 12.3826 10C12.3826 11.3084 11.3076 12.375 9.99927 12.375C8.69093 12.375 7.62427 11.3084 7.62427 10Z" fill="#77919B"/>
</svg>
