<svg width="20" height="20" viewBox="0 0 20 20" fill="none" xmlns="http://www.w3.org/2000/svg">
<path fill-rule="evenodd" clip-rule="evenodd" d="M8.45028 9.02504C10.2682 9.02504 11.7419 7.55132 11.7419 5.73338C11.7419 3.91544 10.2682 2.44171 8.45028 2.44171C6.83141 2.44171 5.48549 3.61036 5.21014 5.15004H2.25033C1.92533 5.15004 1.66699 5.40838 1.66699 5.73338C1.66699 6.05838 1.92533 6.31671 2.25033 6.31671H5.21014C5.48549 7.85639 6.83141 9.02504 8.45028 9.02504ZM13.1003 6.31671H17.7503C18.0753 6.31671 18.3337 6.05838 18.3337 5.73338C18.3337 5.40838 18.0753 5.15004 17.7503 5.15004H13.1003C12.7753 5.15004 12.517 5.40838 12.517 5.73338C12.517 6.05838 12.7753 6.31671 13.1003 6.31671ZM14.7919 14.8417H17.7502C18.0752 14.8417 18.3336 14.5834 18.3336 14.2584C18.3336 13.9334 18.0752 13.675 17.7502 13.675H14.7889C14.5102 12.1395 13.1662 10.975 11.5503 10.975C9.73231 10.975 8.25858 12.4488 8.25858 14.2667C8.25858 16.0846 9.73231 17.5584 11.5503 17.5584C13.172 17.5584 14.5199 16.3855 14.7919 14.8417ZM6.90032 14.8417H2.25033C1.92533 14.8417 1.66699 14.5834 1.66699 14.2584C1.66699 13.9334 1.92533 13.675 2.25033 13.675H6.90032C7.22532 13.675 7.48366 13.9334 7.48366 14.2584C7.48366 14.5834 7.21699 14.8417 6.90032 14.8417Z" fill="#4C646E"/>
</svg>
