<svg width="24" height="24" viewBox="0 0 24 24" fill="none" xmlns="http://www.w3.org/2000/svg">
    <path fill-rule="evenodd" clip-rule="evenodd" d="M12 22C6.48372 22 2 17.5163 2 12C2 6.48372 6.48372 2 12 2C17.5163 2 22 6.48372 22 12C22 17.5163 17.5163 22 12 22ZM12 3.39535C11.2785 3.39535 10.5775 3.48462 9.90743 3.65271C9.90491 3.71934 9.8926 3.78608 9.86999 3.85111C9.49156 4.98839 9.19503 6.15049 8.98037 7.32678C10.9867 7.10459 13.0159 7.10478 15.0211 7.32734C14.8064 6.14823 14.5096 4.98289 14.1306 3.842C14.1098 3.77971 14.0984 3.71633 14.0955 3.65345C13.4245 3.48489 12.7225 3.39535 12 3.39535ZM15.2409 8.7601C13.0916 8.49102 10.9097 8.49057 8.7603 8.75875C8.49125 10.9078 8.49104 13.0892 8.75969 15.2397C10.909 15.5087 13.0909 15.5091 15.2404 15.2408C15.5094 13.0919 15.5095 10.9105 15.2409 8.7601ZM7.33161 8.97756C7.10998 10.9841 7.10991 13.0138 7.33139 15.0203C6.15331 14.8056 4.98958 14.5089 3.85116 14.1301C3.78613 14.1075 3.71937 14.0952 3.65272 14.0927C3.48463 13.4225 3.39535 12.7215 3.39535 12C3.39535 11.2775 3.48489 10.5755 3.65345 9.90448C3.71579 9.90134 3.77899 9.88995 3.84166 9.86958C4.98321 9.48974 6.15021 9.1924 7.33161 8.97756ZM7.53125 7.52669C6.42066 7.7104 5.32068 7.96319 4.23943 8.28507C5.06397 6.56975 6.44083 5.16799 8.13793 4.3119C8.17764 4.31986 8.21865 4.3245 8.26068 4.32552C7.95251 5.37763 7.70936 6.44713 7.53125 7.52669ZM16.6744 8.98042C17.8504 9.19503 19.0121 9.49142 20.1486 9.86958C20.2148 9.89438 20.2809 9.90448 20.347 9.90642C20.5153 10.5768 20.6047 11.2782 20.6047 12C20.6047 12.7216 20.5153 13.4228 20.3472 14.0931C20.2837 14.0963 20.2201 14.1085 20.1581 14.1301C19.0178 14.5095 17.852 14.8067 16.6718 15.0215C16.8951 13.0162 16.8959 10.9869 16.6744 8.98042ZM19.762 8.28799C18.6825 7.96572 17.584 7.71253 16.4745 7.5284C16.2913 6.41935 16.0392 5.32086 15.7183 4.24103C17.4823 5.08993 18.9144 6.52313 19.762 8.28799ZM8.26068 19.6744C7.95246 18.6221 7.70928 17.5524 7.53116 16.4727C6.45022 16.2943 5.37959 16.0501 4.32558 15.7394C4.32454 15.781 4.31977 15.8218 4.3116 15.8615C5.14303 17.51 6.48933 18.8564 8.13777 19.688C8.17753 19.68 8.21859 19.6754 8.26068 19.6744ZM12 16.8371C10.99 16.8371 9.98149 16.7821 8.97928 16.6717C9.19402 17.8512 9.49092 19.0169 9.86999 20.1581C9.89155 20.2201 9.90374 20.2837 9.90701 20.3472C10.5772 20.5153 11.2784 20.6047 12 20.6047C12.7212 20.6047 13.4219 20.5154 14.0918 20.3475C14.0945 20.2814 14.1071 20.2146 14.1306 20.149C14.5092 19.0112 14.8058 17.8486 15.0205 16.6718C14.018 16.7822 13.0097 16.8371 12 16.8371ZM15.7091 19.7634C16.0322 18.6829 16.286 17.5833 16.4706 16.4727C17.5529 16.2943 18.6258 16.0501 19.6837 15.7394C19.6846 15.7767 19.6884 15.8132 19.6948 15.8488C18.8384 17.5539 17.4316 18.937 15.7091 19.7634Z" fill="#4C646E"/>
</svg>
