<svg width="32" height="32" viewBox="0 0 32 32" fill="none" xmlns="http://www.w3.org/2000/svg">
<path opacity="0.4" d="M27.9603 10.6665H24.0403C22.347 10.6665 21.3337 9.65317 21.3337 7.95984V4.03984C21.3337 3.5065 21.4403 3.05317 21.627 2.6665C21.6137 2.6665 21.6003 2.6665 21.587 2.6665H10.4137C5.56033 2.6665 2.66699 5.55984 2.66699 10.4132V21.5865C2.66699 23.0398 2.92033 24.3065 3.41366 25.3732L3.56033 25.2665L10.1203 20.8665C11.187 20.1465 12.6937 20.2265 13.6403 21.0532L14.0937 21.4265C15.1337 22.3198 16.8137 22.3198 17.8537 21.4265L23.4003 16.6665C24.4403 15.7732 26.1203 15.7732 27.1603 16.6665L29.3337 18.5332V10.4132C29.3337 10.3998 29.3337 10.3865 29.3337 10.3732C28.947 10.5598 28.4937 10.6665 27.9603 10.6665Z" fill="#132899"/>
<path fill-rule="evenodd" clip-rule="evenodd" d="M24.0397 1.3335H27.9597C29.653 1.3335 30.6663 2.34683 30.6663 4.04016V7.96016C30.6663 9.6535 29.653 10.6668 27.9597 10.6668H24.0397C22.3463 10.6668 21.333 9.6535 21.333 7.96016V4.04016C21.333 2.34683 22.3463 1.3335 24.0397 1.3335ZM27.6663 5.98683C27.8797 5.98683 28.093 5.90683 28.253 5.74683C28.5863 5.42683 28.5863 4.8935 28.2663 4.5735L26.5997 2.90683C26.5863 2.90683 26.5863 2.90683 26.573 2.8935C26.5063 2.82683 26.4263 2.7735 26.333 2.7335H26.3063C26.213 2.6935 26.133 2.68016 26.0397 2.68016H25.9597C25.8797 2.68016 25.813 2.6935 25.7463 2.72016C25.733 2.72683 25.7197 2.73016 25.7063 2.7335C25.693 2.73683 25.6797 2.74016 25.6663 2.74683C25.573 2.78683 25.4797 2.84016 25.413 2.90683L23.7463 4.5735C23.4263 4.8935 23.4263 5.42683 23.7463 5.74683C24.0663 6.06683 24.5997 6.06683 24.9197 5.74683L25.1597 5.50683V8.4935C25.1597 8.96016 25.533 9.3335 25.9997 9.3335C26.4663 9.3335 26.8397 8.96016 26.8397 8.4935V5.50683L27.0797 5.74683C27.2397 5.90683 27.453 5.98683 27.6663 5.98683ZM11.9998 13.8402C13.7524 13.8402 15.1732 12.4194 15.1732 10.6668C15.1732 8.91424 13.7524 7.49349 11.9998 7.49349C10.2472 7.49349 8.8265 8.91424 8.8265 10.6668C8.8265 12.4194 10.2472 13.8402 11.9998 13.8402ZM29.3331 18.5336V21.5869C29.3331 26.4402 26.4398 29.3336 21.5864 29.3336H10.4131C7.01309 29.3336 4.55975 27.9069 3.41309 25.3736L3.55975 25.2669L10.1198 20.8669C11.1864 20.1469 12.6931 20.2269 13.6398 21.0536L14.0931 21.4269C15.1331 22.3202 16.8131 22.3202 17.8531 21.4269L23.3997 16.6669C24.4398 15.7736 26.1198 15.7736 27.1598 16.6669L29.3331 18.5336Z" fill="#132899"/>
</svg>
