<svg width="16" height="16" viewBox="0 0 16 16" fill="none" xmlns="http://www.w3.org/2000/svg">
    <path fill-rule="evenodd" clip-rule="evenodd" d="M8.31926 14.7333H10.8526C11.9259 14.7333 12.9526 13.9533 13.1993 12.9866L14.7926 8.13329C15.0059 7.54662 14.9393 6.93995 14.6126 6.47995C14.2793 6.00662 13.7126 5.73329 13.0593 5.73329H10.3926C10.3393 5.73329 10.2926 5.71329 10.2593 5.67995C10.2126 5.62662 10.2126 5.55995 10.2193 5.51329L10.5459 3.41329C10.7326 2.55995 10.1993 1.63995 9.36592 1.36662C8.64592 1.09329 7.72592 1.39329 7.30592 2.01995L5.32266 4.97067C5.10724 4.27502 4.53369 3.93323 3.58691 3.93323H2.92025C1.68691 3.93323 1.08691 4.51323 1.08691 5.69989V12.2332C1.08691 13.4199 1.68691 13.9999 2.92025 13.9999H3.58691C4.4744 13.9999 5.03394 13.6996 5.27797 13.089L6.69926 14.1866C7.13259 14.62 7.94592 14.7333 8.31926 14.7333ZM5.42025 11.9321L7.35926 13.4333C7.52592 13.5933 7.94592 13.7266 8.31926 13.7266H10.8526C11.4526 13.7266 12.0993 13.2466 12.2326 12.7066L13.8459 7.80662C13.9526 7.51329 13.9326 7.24662 13.7926 7.05329C13.6459 6.84662 13.3793 6.72662 13.0526 6.72662H10.3859C10.0393 6.72662 9.71926 6.57995 9.49926 6.32662C9.27259 6.06662 9.17259 5.71995 9.22592 5.35995L9.55926 3.21995C9.63926 2.84662 9.38592 2.42662 9.02592 2.30662C8.69926 2.18662 8.27926 2.35995 8.13259 2.57329L5.42025 6.60872V11.9321ZM2.08691 5.69989C2.08691 5.10656 2.19358 4.93323 2.92025 4.93323H3.58691C4.31358 4.93323 4.42025 5.10656 4.42025 5.69989V12.2332C4.42025 12.8266 4.31358 12.9999 3.58691 12.9999H2.92025C2.19358 12.9999 2.08691 12.8266 2.08691 12.2332V5.69989Z" fill="#4C646E"/>
</svg>
