<svg width="20" height="20" viewBox="0 0 20 20" fill="none" xmlns="http://www.w3.org/2000/svg">
    <path fill-rule="evenodd" clip-rule="evenodd" d="M15.2327 6.89996V7.94163C17.566 8.23329 18.3327 9.41663 18.3327 12.325V13.875C18.3327 17.2916 17.291 18.3333 13.8743 18.3333H6.12435C2.70768 18.3333 1.66602 17.2916 1.66602 13.875V12.325C1.66602 9.41663 2.43268 8.23329 4.76602 7.94163V6.89996C4.76602 4.64996 5.30768 1.66663 9.99935 1.66663C14.691 1.66663 15.2327 4.64996 15.2327 6.89996ZM7.48268 13.1C7.48268 14.4833 8.60768 15.6166 9.99935 15.6166C11.391 15.6166 12.516 14.4916 12.516 13.1C12.516 11.7166 11.3827 10.5833 9.99935 10.5833C8.61602 10.5833 7.48268 11.7083 7.48268 13.1ZM5.93268 7.86663H6.12435V7.87496H13.8743H14.066V6.89996C14.066 4.45829 13.3743 2.83329 9.99935 2.83329C6.62435 2.83329 5.93268 4.45829 5.93268 6.89996V7.86663ZM11.3578 13.0999C11.3578 13.8501 10.7496 14.4583 9.99945 14.4583C9.24926 14.4583 8.64111 13.8501 8.64111 13.0999C8.64111 12.3497 9.24926 11.7416 9.99945 11.7416C10.7496 11.7416 11.3578 12.3497 11.3578 13.0999Z" fill="white"/>
</svg>
