<svg width="25" height="24" viewBox="0 0 25 24" fill="none" xmlns="http://www.w3.org/2000/svg">
<path fill-rule="evenodd" clip-rule="evenodd" d="M13.65 2H17.85C21.35 2 22.75 3.4 22.75 6.9V11.1C22.75 14.1831 21.6559 15.629 19.011 15.9303C18.4577 15.9933 18 15.535 18 14.9781V12.9C18 8.7 16.05 6.75 11.85 6.75H9.77191C9.215 6.75 8.75673 6.29235 8.81975 5.73901C9.12099 3.09409 10.5669 2 13.65 2ZM7.65 8H11.85C15.35 8 16.75 9.4 16.75 12.9V17.1C16.75 20.6 15.35 22 11.85 22H7.65C4.15 22 2.75 20.6 2.75 17.1V12.9C2.75 9.4 4.15 8 7.65 8ZM9.33 17.36L13.04 13.65C13.32 13.37 13.31 12.91 13.03 12.63C12.75 12.35 12.3 12.35 12.02 12.63L8.81 15.84L7.46 14.49C7.18 14.21 6.73 14.21 6.45 14.49C6.17 14.77 6.17 15.22 6.45 15.5L8.31 17.36C8.45 17.5 8.63 17.57 8.82 17.57C9.01 17.57 9.19 17.5 9.33 17.36Z" fill="#4C646E"/>
</svg>
