<svg width="21" height="20" viewBox="0 0 21 20" fill="none" xmlns="http://www.w3.org/2000/svg">
<path fill-rule="evenodd" clip-rule="evenodd" d="M17.1099 17.99L16.7199 14.83C18.8599 13.33 20.2499 10.94 20.2499 8.24C20.2499 3.69 16.2999 0 11.4199 0C7.23989 0 3.73989 2.71 2.82989 6.35C2.73989 6.73 3.09989 7.07 3.46989 6.95C4.18989 6.71 4.95989 6.59 5.74989 6.59C9.60989 6.59 12.7499 9.57 12.7499 13.23C12.7499 14.27 12.4799 15.31 11.9799 16.23C11.8499 16.47 11.9099 16.77 12.1499 16.91L15.6099 18.97C16.3199 19.4 17.2099 18.82 17.1099 17.99ZM10.07 16.39C10.81 15.52 11.25 14.42 11.25 13.23C11.25 10.39 8.79 8.08997 5.75 8.08997C4.59 8.08997 3.52 8.41997 2.63 8.99997C1.19 9.91997 0.25 11.47 0.25 13.23C0.25 14.91 1.11 16.4 2.45 17.33L2.2 19.3C2.14 19.81 2.7 20.18 3.14 19.91L5.75 18.36C7.51 18.36 9.08 17.59 10.07 16.39Z" fill="#4C646E"/>
</svg>
