<svg width="25" height="24" viewBox="0 0 25 24" fill="none" xmlns="http://www.w3.org/2000/svg">
<path fill-rule="evenodd" clip-rule="evenodd" d="M19.31 12.1798L20.44 14.0598C20.85 14.7498 20.93 15.5698 20.65 16.3198C20.37 17.0598 19.78 17.6398 19.01 17.8998C17.93 18.2598 16.82 18.5398 15.7 18.7198C15.59 18.7398 15.48 18.7598 15.37 18.7698C15.19 18.7998 15.01 18.8198 14.8301 18.8398L14.83 18.8398C14.61 18.8698 14.38 18.8898 14.1501 18.9098L14.15 18.9098C13.53 18.9698 12.9 18.9998 12.27 18.9998C11.63 18.9998 10.99 18.9698 10.36 18.9098C10.09 18.8898 9.82996 18.8598 9.56996 18.8198L9.56934 18.8197C9.41954 18.7998 9.26977 18.7798 9.12996 18.7598C9.07496 18.7498 9.01996 18.7423 8.96496 18.7348C8.90996 18.7273 8.85496 18.7198 8.79996 18.7098C7.68996 18.5198 6.59996 18.2598 5.51996 17.8998C4.71996 17.6398 4.10996 17.0598 3.83996 16.3298C3.56996 15.6098 3.66996 14.7798 4.09996 14.0498L5.22996 12.1698C5.46996 11.7598 5.68996 10.9698 5.68996 10.4898V8.6298C5.68996 4.9998 8.63996 2.0598 12.27 2.0498C15.89 2.0498 18.84 4.9998 18.84 8.6298V10.4998C18.84 10.9798 19.06 11.7698 19.31 12.1798ZM12.24 10.7598C12.66 10.7598 13 10.4198 13 9.9998V6.89981C13 6.4798 12.66 6.1398 12.24 6.1398C11.82 6.1398 11.48 6.4798 11.48 6.89981V9.9998C11.48 10.4198 11.82 10.7598 12.24 10.7598ZM12.2499 21.9998C13.5499 21.9998 14.6599 21.1698 15.0799 20.0098C14.9099 20.0298 14.7499 20.0498 14.5899 20.0698C14.4549 20.09 14.3153 20.1012 14.1742 20.1124C14.1063 20.1178 14.0381 20.1233 13.9699 20.1298C13.4099 20.1798 12.8399 20.2098 12.2699 20.2098C11.6899 20.2098 11.1099 20.1798 10.5399 20.1298C10.2999 20.1098 10.0599 20.0798 9.82993 20.0498C9.76412 20.0404 9.70053 20.0332 9.6381 20.0261C9.56772 20.0181 9.49883 20.0104 9.42993 19.9998C9.56993 20.4098 9.80993 20.8098 10.1299 21.1098C10.6799 21.6798 11.4599 21.9998 12.2499 21.9998Z" fill="#4C646E"/>
</svg>
