<svg width="16" height="16" viewBox="0 0 16 16" fill="none" xmlns="http://www.w3.org/2000/svg">
    <path fill-rule="evenodd" clip-rule="evenodd" d="M1.33301 8.00016C1.33301 11.6777 4.32216 14.6668 7.99967 14.6668C11.6772 14.6668 14.6663 11.6777 14.6663 8.00016C14.6663 4.32264 11.6772 1.3335 7.99967 1.3335C4.32216 1.3335 1.33301 4.32264 1.33301 8.00016ZM2.26324 8.00016C2.26324 4.83737 4.83688 2.26373 7.99967 2.26373C11.1625 2.26373 13.7361 4.83737 13.7361 8.00016C13.7361 11.163 11.1625 13.7366 7.99967 13.7366C4.83688 13.7366 2.26324 11.163 2.26324 8.00016ZM10.3253 6.75985V6.98042C11.2267 7.16165 11.5656 7.73707 11.5656 8.9304V9.55055C11.5656 11.0389 11.0384 11.5661 9.55006 11.5661H6.44929C4.96091 11.5661 4.43378 11.0389 4.43378 9.55055V8.9304C4.43378 7.73707 4.77264 7.16165 5.67409 6.98042V6.75985C5.67409 6.18311 5.67409 4.43427 7.99967 4.43427C10.3253 4.43427 10.3253 6.18311 10.3253 6.75985ZM9.39502 6.91489H6.60433V6.75985C6.60433 5.85443 6.82758 5.3645 7.99967 5.3645C9.17177 5.3645 9.39502 5.85443 9.39502 6.75985V6.91489ZM7.1624 9.24042C7.1624 9.69933 7.54068 10.0776 7.9996 10.0776C8.45851 10.0776 8.83679 9.69933 8.83679 9.24042C8.83679 8.7815 8.45851 8.4032 7.9996 8.4032C7.54068 8.4032 7.1624 8.7815 7.1624 9.24042ZM7.90656 9.24042C7.90656 9.1908 7.94999 9.1474 7.9996 9.1474C8.04921 9.1474 8.09264 9.1908 8.09264 9.24042C8.09264 9.34584 7.90656 9.34584 7.90656 9.24042ZM6.44929 7.84512C5.46324 7.84512 5.36402 7.94435 5.36402 8.9304V9.55055C5.36402 10.5366 5.46324 10.6358 6.44929 10.6358H9.55006C10.5361 10.6358 10.6353 10.5366 10.6353 9.55055V8.9304C10.6353 7.94435 10.5361 7.84512 9.55006 7.84512H6.44929Z" fill="#77919B"/>
</svg>
