<svg width="21" height="20" viewBox="0 0 21 20" fill="none" xmlns="http://www.w3.org/2000/svg">
<path d="M10.8831 9.05833C10.7998 9.05 10.6998 9.05 10.6081 9.05833C8.6248 8.99166 7.0498 7.36666 7.0498 5.36666C7.0498 3.325 8.6998 1.66666 10.7498 1.66666C12.7915 1.66666 14.4498 3.325 14.4498 5.36666C14.4415 7.36666 12.8665 8.99166 10.8831 9.05833Z" stroke="#243138" stroke-width="1.5" stroke-linecap="round" stroke-linejoin="round"/>
<path d="M6.7166 12.1333C4.69993 13.4833 4.69993 15.6833 6.7166 17.025C9.00827 18.5583 12.7666 18.5583 15.0583 17.025C17.0749 15.675 17.0749 13.475 15.0583 12.1333C12.7749 10.6083 9.0166 10.6083 6.7166 12.1333Z" stroke="#243138" stroke-width="1.5" stroke-linecap="round" stroke-linejoin="round"/>
</svg>
