<svg width="16" height="18" viewBox="0 0 16 18" fill="none" xmlns="http://www.w3.org/2000/svg">
    <path d="M7.61597 10.6667C8.14131 10.6667 8.6805 10.7268 9.1775 10.8123C8.78458 11.4497 8.45346 12.1366 8.45346 13.1667C8.45346 13.6914 8.54549 14.966 9.67099 16.1059C9.74857 16.1845 10.2795 16.6937 10.9697 17.0111C11.5 17.2549 12.1552 17.3334 12.5827 17.3334H0.457682C0.224349 17.3334 0.0410156 17.1501 0.0410156 16.9167C0.0410156 13.4667 3.44102 10.6667 7.61597 10.6667ZM15.1491 16.4544C15.1639 16.6139 15.191 16.7532 15.191 16.9167C15.191 17.1501 15.0076 17.3334 14.7743 17.3334H12.5827C13.5667 17.3334 13.9422 17.1002 14.705 16.7642C14.7988 16.7229 15.1735 16.435 15.1491 16.4544ZM12.6161 9.83342C13.5994 9.83342 14.4911 10.2584 15.0911 10.9417C15.6244 11.5334 15.9494 12.3167 15.9494 13.1667C15.9494 13.4334 15.9161 13.6917 15.8494 13.9417C15.7744 14.2751 15.6411 14.6001 15.4661 14.8834C14.8911 15.8501 13.8327 16.5001 12.6161 16.5001C11.7577 16.5001 10.9827 16.1751 10.3994 15.6417C10.1494 15.4251 9.93272 15.1667 9.76606 14.8834C9.45772 14.3834 9.28272 13.7917 9.28272 13.1667C9.28272 12.2667 9.64106 11.4417 10.2244 10.8417C10.8327 10.2167 11.6827 9.83342 12.6161 9.83342ZM12.5827 12.3051H12.1856H11.9349H11.7809H10.9457C10.4891 12.3051 10.1105 12.6837 10.1105 13.1403C10.1105 13.5642 10.437 13.921 10.8491 13.9698L10.9457 13.9755H11.7809H11.9349H12.2279H12.5827H12.9994H13.4512H14.2864C14.743 13.9755 15.1216 13.5968 15.1216 13.1403C15.1216 12.7163 14.7952 12.3596 14.383 12.3108L14.2864 12.3051H13.4512H12.9994H12.5827ZM7.61606 9.00008C9.91731 9.00008 11.7827 7.1346 11.7827 4.83342C11.7827 2.53223 9.91731 0.666748 7.61606 0.666748C5.31491 0.666748 3.44942 2.53223 3.44942 4.83342C3.44942 7.1346 5.31491 9.00008 7.61606 9.00008Z" fill="#FF3850"/>
</svg>
