<svg width="20" height="20" viewBox="0 0 20 20" fill="none" xmlns="http://www.w3.org/2000/svg">
<path fill-rule="evenodd" clip-rule="evenodd" d="M1.04199 9.16666C1.04199 13.65 4.68366 17.2917 9.16699 17.2917C13.6503 17.2917 17.292 13.65 17.292 9.16666C17.292 4.68333 13.6503 1.04166 9.16699 1.04166C4.68366 1.04166 1.04199 4.68333 1.04199 9.16666ZM2.29199 9.16666C2.29199 5.375 5.37533 2.29166 9.16699 2.29166C12.9587 2.29166 16.042 5.375 16.042 9.16666C16.042 12.9583 12.9587 16.0417 9.16699 16.0417C5.37533 16.0417 2.29199 12.9583 2.29199 9.16666ZM16.6087 18.975C16.6671 18.9833 16.7337 18.9917 16.8004 18.9917C17.2171 18.9917 17.8587 18.8083 18.4504 17.9167C18.9254 17.2083 19.0087 16.475 18.7087 15.9C18.4087 15.325 17.7421 15 16.8921 15C16.2337 15 15.6587 15.2667 15.3171 15.7417C14.9754 16.2167 14.9004 16.8417 15.1087 17.4667C15.5087 18.6583 16.2171 18.925 16.6087 18.975ZM16.7754 17.7417C16.6421 17.725 16.4421 17.5083 16.3004 17.075C16.2171 16.8333 16.2337 16.6167 16.3337 16.475C16.4421 16.3333 16.6337 16.25 16.8921 16.25C17.3254 16.25 17.5587 16.375 17.6171 16.4917C17.6754 16.6083 17.6587 16.8667 17.4171 17.225C17.1587 17.6 16.9087 17.7583 16.7754 17.7417Z" fill="#243138"/>
</svg>
