<svg width="24" height="24" viewBox="0 0 24 24" fill="none" xmlns="http://www.w3.org/2000/svg">
    <path d="M12.0052 22C10.9916 22 9.98729 21.7024 9.19687 21.1166L5.19826 18.1316C4.13816 17.3412 3.31055 15.6859 3.31055 14.3748V7.45624C3.31055 6.02418 4.36134 4.49913 5.70971 3.99698L10.35 2.25805C11.2706 1.91398 12.7212 1.91398 13.6418 2.25805L18.2821 3.99698C19.6304 4.49913 20.6812 6.02418 20.6812 7.45624V14.3655C20.6812 15.6859 19.8536 17.3319 18.7935 18.1223L14.7949 21.1073C14.0231 21.7024 13.0188 22 12.0052 22ZM10.8428 3.56922L6.20256 5.30815C5.41214 5.60572 4.71471 6.61002 4.71471 7.46554V14.3748C4.71471 15.2582 5.33775 16.4949 6.03518 17.0157L10.0338 20.0007C11.1032 20.8004 12.9072 20.8004 13.9859 20.0007L17.9845 17.0157C18.6912 16.4856 19.305 15.2582 19.305 14.3748V7.45624C19.305 6.61002 18.6075 5.60572 17.8171 5.29885L13.1769 3.55992C12.5445 3.33674 11.4658 3.33674 10.8428 3.56922Z" fill="#4C646E"/>
</svg>
