<svg width="20" height="20" viewBox="0 0 20 20" fill="none" xmlns="http://www.w3.org/2000/svg">
    <path d="M1.66604 9.99018C1.65895 11.771 3.09687 13.2204 4.87772 13.2275C5.69787 13.2307 6.48846 12.9213 7.08854 12.3623L11.8937 14.5318C11.8603 14.7115 11.842 14.8936 11.8389 15.0763C11.8333 16.8694 13.2823 18.3276 15.0754 18.3333C16.8685 18.339 18.3266 16.89 18.3323 15.0969C18.338 13.3038 16.889 11.8456 15.0959 11.8399C14.0246 11.8365 13.0206 12.3618 12.4126 13.2438L7.89796 11.2054C8.21863 10.431 8.21986 9.56131 7.90144 8.78609L12.4098 6.73721C13.425 8.20549 15.4382 8.57275 16.9065 7.55756C18.3748 6.54237 18.742 4.52915 17.7268 3.06087C16.7116 1.59259 14.6984 1.22533 13.2301 2.24053C12.3557 2.84512 11.8345 3.841 11.8362 4.90408C11.8391 5.08706 11.8576 5.26942 11.8917 5.44924L7.09894 7.6271C5.80044 6.4078 3.75937 6.47201 2.54006 7.77051C1.97575 8.37153 1.66299 9.16577 1.66604 9.99018Z" fill="#243138"/>
</svg>
