<svg width="25" height="24" viewBox="0 0 25 24" fill="none" xmlns="http://www.w3.org/2000/svg">
<path fill-rule="evenodd" clip-rule="evenodd" d="M5 2C3.61929 2 2.5 3.23122 2.5 4.75C2.5 6.26878 3.61929 7.5 5 7.5H20C21.3807 7.5 22.5 6.26878 22.5 4.75C22.5 3.23122 21.3807 2 20 2H5ZM2.5 15.2558C2.5 12.8334 2.5 11.6223 2.97231 10.7054C3.34525 9.98152 3.9167 9.3886 4.61441 9.00166C5.49805 8.5116 6.66537 8.5116 9 8.5116H16C18.3346 8.5116 19.5019 8.5116 20.3856 9.00166C21.0833 9.3886 21.6548 9.98152 22.0277 10.7054C22.5 11.6223 22.5 12.8334 22.5 15.2558C22.5 17.6781 22.5 18.8893 22.0277 19.8061C21.6548 20.53 21.0833 21.123 20.3856 21.5099C19.5019 22 18.3346 22 16 22H9C6.66537 22 5.49805 22 4.61441 21.5099C3.9167 21.123 3.34525 20.53 2.97231 19.8061C2.5 18.8893 2.5 17.6781 2.5 15.2558ZM14.7888 18.5395H16.7507C18.3856 18.5395 19.0395 17.8856 19.0395 16.2507V14.2888C19.0395 12.654 18.3856 12 16.7507 12H14.7888C13.154 12 12.5 12.654 12.5 14.2888V16.2507C12.5 17.8856 13.154 18.5395 14.7888 18.5395ZM6.36027 16.8838C5.97496 16.8838 5.6626 17.1961 5.6626 17.5815C5.6626 17.9668 5.97496 18.2791 6.36027 18.2791H10.5742C10.9595 18.2791 11.2719 17.9668 11.2719 17.5815C11.2719 17.1961 10.9595 16.8838 10.5742 16.8838H6.36027ZM5.6626 13.4884C5.6626 13.1031 5.97496 12.7908 6.36027 12.7908H10.5742C10.9595 12.7908 11.2719 13.1031 11.2719 13.4884C11.2719 13.8738 10.9595 14.1861 10.5742 14.1861H6.36027C5.97496 14.1861 5.6626 13.8738 5.6626 13.4884Z" fill="#4C646E"/>
</svg>
