<svg width="18" height="16" viewBox="0 0 18 16" fill="none" xmlns="http://www.w3.org/2000/svg">
    <path d="M16.1498 4.1434C16.1612 4.30329 16.1612 4.46321 16.1612 4.62311C16.1612 9.5 12.4493 15.1193 5.66499 15.1193C3.57488 15.1193 1.63326 14.514 0 13.4632C0.296966 13.4975 0.582471 13.5089 0.890863 13.5089C2.61546 13.5089 4.20305 12.9264 5.47083 11.9328C3.84899 11.8985 2.48985 10.8363 2.02156 9.37439C2.25001 9.40863 2.47842 9.43148 2.71829 9.43148C3.0495 9.43148 3.38074 9.38578 3.6891 9.30587C1.99875 8.9632 0.730936 7.47844 0.730936 5.68529V5.63962C1.22204 5.91373 1.79315 6.08505 2.39844 6.10787C1.40478 5.44541 0.753788 4.31471 0.753788 3.03551C0.753788 2.35025 0.936496 1.72207 1.25631 1.17384C3.07232 3.41243 5.80203 4.87433 8.86293 5.03426C8.80583 4.76015 8.77155 4.47464 8.77155 4.1891C8.77155 2.15608 10.4162 0.5 12.4607 0.5C13.5228 0.5 14.4822 0.945432 15.1561 1.66498C15.9898 1.50509 16.7893 1.19669 17.4975 0.774114C17.2233 1.63073 16.6409 2.35028 15.8756 2.8071C16.618 2.72719 17.3376 2.52156 18 2.23606C17.4975 2.96699 16.8693 3.61799 16.1498 4.1434Z" fill="#1DA1F2"/>
</svg>
