<svg width="17" height="18" viewBox="0 0 17 18" fill="none" xmlns="http://www.w3.org/2000/svg">
<path fill-rule="evenodd" clip-rule="evenodd" d="M0.166992 9.00002C0.166992 13.5969 3.90343 17.3334 8.50033 17.3334C13.0972 17.3334 16.8337 13.5969 16.8337 9.00002C16.8337 4.40312 13.0972 0.666687 8.50033 0.666687C3.90343 0.666687 0.166992 4.40312 0.166992 9.00002ZM1.32978 9.00002C1.32978 5.04653 4.54684 1.82948 8.50033 1.82948C12.4538 1.82948 15.6709 5.04653 15.6709 9.00002C15.6709 12.9535 12.4538 16.1706 8.50033 16.1706C4.54684 16.1706 1.32978 12.9535 1.32978 9.00002ZM12.9577 10.1628C12.9577 8.67115 12.5341 7.95188 11.4073 7.72534V7.44963C11.4073 6.7287 11.4073 4.54266 8.50033 4.54266C5.59335 4.54266 5.59335 6.7287 5.59335 7.44963V7.72534C4.46653 7.95188 4.04296 8.67115 4.04296 10.1628V10.938C4.04296 12.7985 4.70188 13.4574 6.56234 13.4574H10.4383C12.2988 13.4574 12.9577 12.7985 12.9577 10.938V10.1628ZM6.75614 7.44963V7.64343H10.2445V7.44963C10.2445 6.31785 9.96544 5.70545 8.50033 5.70545C7.03521 5.70545 6.75614 6.31785 6.75614 7.44963ZM7.45374 10.5503C7.45374 11.124 7.92659 11.5969 8.50023 11.5969C9.07387 11.5969 9.54672 11.124 9.54672 10.5503C9.54672 9.97669 9.07387 9.50382 8.50023 9.50382C7.92659 9.50382 7.45374 9.97669 7.45374 10.5503ZM8.38393 10.5503C8.38393 10.4883 8.43822 10.4341 8.50023 10.4341C8.56225 10.4341 8.61653 10.4883 8.61653 10.5503C8.61653 10.6821 8.38393 10.6821 8.38393 10.5503ZM6.56234 8.80622C5.32978 8.80622 5.20575 8.93025 5.20575 10.1628V10.938C5.20575 12.1706 5.32978 12.2946 6.56234 12.2946H10.4383C11.6709 12.2946 11.7949 12.1706 11.7949 10.938V10.1628C11.7949 8.93025 11.6709 8.80622 10.4383 8.80622H6.56234Z" fill="white"/>
</svg>
