<svg width="16" height="16" viewBox="0 0 16 16" fill="none" xmlns="http://www.w3.org/2000/svg">
    <path d="M9.77987 12.4999H6.21987C4.96653 12.4999 4.0132 12.0465 3.53987 11.2265C3.06653 10.4065 3.1532 9.35321 3.77987 8.26654L5.55987 5.17988C6.18653 4.09988 7.0532 3.49988 7.99987 3.49988C8.94653 3.49988 9.8132 4.09988 10.4399 5.18654L12.2199 8.27321C12.8465 9.35988 12.9332 10.4132 12.4599 11.2332C11.9865 12.0465 11.0332 12.4999 9.77987 12.4999ZM7.99987 4.49988C7.42653 4.49988 6.86653 4.91988 6.42653 5.68654L4.64653 8.77321C4.20653 9.53988 4.11987 10.2332 4.40653 10.7332C4.6932 11.2332 5.33987 11.5065 6.21987 11.5065H9.77987C10.6599 11.5065 11.3065 11.2332 11.5932 10.7332C11.8799 10.2332 11.7932 9.53988 11.3532 8.77321L9.5732 5.68654C9.1332 4.91988 8.5732 4.49988 7.99987 4.49988Z" fill="#4C646E"/>
</svg>
