<svg width="10" height="14" viewBox="0 0 10 14" fill="none" xmlns="http://www.w3.org/2000/svg">
    <path fill-rule="evenodd" clip-rule="evenodd" d="M1.96074 3.63961C1.96074 1.96281 3.32394 0.599609 5.00074 0.599609C6.67754 0.599609 8.04074 1.96281 8.04074 3.63961C8.03434 5.28441 6.74794 6.61561 5.10954 6.67321H5.09674H5.06474C5.02634 6.66681 4.97514 6.66681 4.92394 6.67321C3.24714 6.61561 1.96074 5.28441 1.96074 3.63961ZM1.75592 8.37561C3.55432 7.18521 6.46632 7.18521 8.25192 8.37561C9.05832 8.91321 9.49992 9.64281 9.50632 10.43C9.50632 11.2236 9.05832 11.9532 8.25192 12.4972C7.35592 13.0988 6.17832 13.3996 5.00072 13.3996C3.82312 13.3996 2.64552 13.0988 1.74952 12.4972C0.943117 11.9596 0.495117 11.23 0.495117 10.4428C0.495117 9.65561 0.943117 8.91961 1.75592 8.37561Z" fill="#A7B8BE"/>
</svg>
