<svg width="24" height="24" viewBox="0 0 24 24" fill="none" xmlns="http://www.w3.org/2000/svg">
    <path fill-rule="evenodd" clip-rule="evenodd" d="M6.76685 7.34884C6.76685 10.2977 9.11481 12.6977 11.9997 12.6977C14.8846 12.6977 17.2326 10.2977 17.2326 7.34884C17.2326 4.4 14.8846 2 11.9997 2C9.11481 2 6.76685 4.4 6.76685 7.34884ZM8.13194 7.34884C8.13194 5.17209 9.87017 3.39535 11.9997 3.39535C14.1293 3.39535 15.8675 5.17209 15.8675 7.34884C15.8675 9.52558 14.1293 11.3023 11.9997 11.3023C9.87017 11.3023 8.13194 9.52558 8.13194 7.34884ZM19.1349 21.3023C19.1349 21.6837 19.4443 22 19.8175 22C20.1906 22 20.5 21.6837 20.5 21.3023C20.5 17.3302 16.6868 14.093 12 14.093C7.31317 14.093 3.5 17.3302 3.5 21.3023C3.5 21.6837 3.80942 22 4.18255 22C4.55567 22 4.8651 21.6837 4.8651 21.3023C4.8651 18.093 8.06852 15.4884 12 15.4884C15.9315 15.4884 19.1349 18.093 19.1349 21.3023Z" fill="#4C646E"/>
</svg>
