<svg width="24" height="24" viewBox="0 0 24 24" fill="none" xmlns="http://www.w3.org/2000/svg">
    <path fill-rule="evenodd" clip-rule="evenodd" d="M15.9544 9.35113C16.7273 10.0534 17.7225 10.4444 18.7709 10.4444C19.0132 10.4444 19.2484 10.4256 19.4742 10.3868C19.7398 11.1943 19.8814 12.0372 19.8814 12.8889C19.8814 15.2239 18.8485 17.3196 17.2174 18.7457C16.6822 16.7765 14.5811 15.3066 12.0716 15.3066C9.58444 15.3066 7.4985 16.757 6.94053 18.6961C5.34189 17.2713 4.33274 15.197 4.33274 12.8889C4.33274 8.59556 7.82452 5.11111 12.1071 5.11111C12.9646 5.11111 13.8046 5.24314 14.6095 5.51593C14.5702 5.74804 14.5505 5.9839 14.5505 6.22222C14.5505 6.99556 14.7638 7.75111 15.1547 8.39111C15.3679 8.75556 15.6434 9.08446 15.9544 9.35113ZM18.8049 9.11218C18.1131 9.11105 17.3914 8.85473 16.8517 8.36442C16.6385 8.17775 16.4519 7.95554 16.3097 7.70665C16.0343 7.26221 15.8922 6.74667 15.8922 6.22222C15.8922 5.91111 15.9366 5.59997 16.0343 5.30664C16.1676 4.88886 16.3897 4.52443 16.7007 4.20443C17.2427 3.64443 17.9801 3.33333 18.7709 3.33333C19.5972 3.33333 20.379 3.68002 20.921 4.29335C21.4008 4.82668 21.6674 5.51111 21.6674 6.22222C21.6674 6.45333 21.6407 6.67557 21.5785 6.90668C21.5163 7.18224 21.4097 7.45777 21.2498 7.71555C20.9083 8.2877 20.3865 8.72041 19.7473 8.94269C19.7177 8.9492 19.6883 8.95791 19.6593 8.96891C19.3912 9.06451 19.1009 9.11172 18.8049 9.11218ZM20.7297 9.95697C21.409 9.60646 21.9826 9.06872 22.3782 8.40001C22.6092 8.03557 22.778 7.61777 22.8668 7.21777C22.9557 6.89777 23.0001 6.56 23.0001 6.22222C23.0001 5.17333 22.6092 4.17779 21.9161 3.40446C21.1343 2.51557 19.9881 2 18.7798 2C17.6247 2 16.5496 2.46222 15.75 3.28C15.4628 3.56735 15.222 3.89756 15.0343 4.25478C14.098 3.9384 13.1174 3.77778 12.1071 3.77778C7.08707 3.77778 3 7.86667 3 12.8889C3 17.9111 7.08707 22 12.1071 22C17.1271 22 21.2141 17.9111 21.2141 12.8978C21.2141 11.8914 21.0527 10.9029 20.7297 9.95697ZM12.1071 20.6667C10.6563 20.6667 9.29632 20.2668 8.13206 19.5711C8.2399 17.9396 9.96423 16.64 12.0716 16.64C14.1964 16.64 15.9318 17.9612 16.0135 19.6116C14.8646 20.2823 13.5294 20.6667 12.1071 20.6667ZM8.90851 11.4843C8.90851 13.2265 10.3301 14.6487 12.0715 14.6487C13.813 14.6487 15.2346 13.2265 15.2346 11.4843C15.2346 9.74204 13.813 8.31982 12.0715 8.31982C10.3301 8.31982 8.90851 9.74204 8.90851 11.4843ZM10.2412 11.4932C10.2412 10.4798 11.0675 9.66206 12.0715 9.66206C13.0844 9.66206 13.9018 10.4798 13.9018 11.4932C13.9018 12.5065 13.0844 13.3243 12.0715 13.3243C11.0587 13.3243 10.2412 12.5065 10.2412 11.4932ZM18.1044 6.87118H17.4381C17.0738 6.87118 16.7717 6.56895 16.7717 6.20451C16.7717 5.84006 17.0738 5.53784 17.4381 5.53784H18.1044V4.90666C18.1044 4.54221 18.4066 4.23999 18.771 4.23999C19.1355 4.23999 19.4377 4.54221 19.4377 4.90666V5.53784H20.0947C20.459 5.53784 20.761 5.84006 20.761 6.20451C20.761 6.56895 20.4678 6.87118 20.0947 6.87118H19.4377V7.56443C19.4377 7.93776 19.1355 8.23109 18.771 8.23109C18.4066 8.23109 18.1044 7.92887 18.1044 7.56443V6.87118Z" fill="#4C646E"/>
</svg>
