<svg width="54" height="54" viewBox="0 0 54 54" fill="none" xmlns="http://www.w3.org/2000/svg">
    <path opacity="0.4" fill-rule="evenodd" clip-rule="evenodd" d="M14.0896 6.2027C12.6371 7.6822 11.7297 9.86584 11.7297 12.6633V17.7287H27.7427C30.7027 17.7287 33.3143 18.742 35.1906 20.6531C37.0668 22.5642 38.0616 25.2243 38.0616 28.2393V38.5471C38.0616 39.1105 38.0287 39.6733 37.9542 40.2278L39.3326 41.1541C39.3814 41.1879 39.4149 41.1939 39.44 41.1946C39.4723 41.1956 39.5168 41.1874 39.5645 41.1612C39.6122 41.1351 39.6474 41.0994 39.6687 41.0647C39.6865 41.0357 39.7027 40.9954 39.7027 40.9278V36.3437C39.7027 35.2946 40.5376 34.4442 41.5676 34.4442C44.3107 34.4442 46.4639 33.5273 47.8985 32.0464L47.9161 32.0283C49.37 30.5671 50.2703 28.374 50.2703 25.5799V12.6633C50.2703 9.86584 49.3629 7.6822 47.9104 6.2027C46.4579 4.72321 44.314 3.799 41.5676 3.799H20.4324C17.6859 3.799 15.5421 4.72321 14.0896 6.2027ZM11.4523 3.5164C13.6984 1.22856 16.8384 0 20.4324 0H41.5676C45.1616 0 48.3016 1.22856 50.5477 3.5164C52.7938 5.80425 54 9.00252 54 12.6633V25.5799C54 29.214 52.8146 32.4371 50.5446 34.7237C48.6995 36.6241 46.2333 37.7781 43.4324 38.1289V40.9278C43.4324 44.1336 39.9081 46.1306 37.2495 44.3056L34.8465 42.6906C34.1644 42.2322 33.8548 41.3749 34.0826 40.5755C34.2468 39.9997 34.3319 39.323 34.3319 38.5471V28.2393C34.3319 26.0876 33.6359 24.4422 32.5532 23.3394C31.4706 22.2366 29.8551 21.5277 27.7427 21.5277H10.8594C10.5937 21.5277 10.3395 21.5468 10.0079 21.5728C9.48998 21.6134 8.97891 21.4321 8.59778 21.0726C8.21665 20.7131 8 20.208 8 19.6789V12.6633C8 9.00252 9.20616 5.80425 11.4523 3.5164Z" fill="#132899"/>
    <path fill-rule="evenodd" clip-rule="evenodd" d="M9.60432 21.7664C7.74174 21.941 6.3186 22.6715 5.35727 23.7347C4.39084 24.8036 3.77734 26.3354 3.77734 28.3014V38.4041C3.77734 40.5106 4.48078 42.1242 5.5913 43.2189C6.67371 44.2858 8.30887 44.9821 10.4506 44.9821C11.4937 44.9821 12.3393 45.8156 12.3393 46.8438V50.0924L19.6534 45.294C19.9634 45.0906 20.3274 44.9821 20.6998 44.9821H27.5494C31.0017 44.9821 33.2525 43.1978 33.9524 40.4567C33.958 40.4351 33.9639 40.4135 33.9702 40.3921C34.1365 39.8277 34.2227 39.1645 34.2227 38.4041V28.3014C34.2227 26.1926 33.5178 24.5799 32.4213 23.499C31.3248 22.4182 29.6888 21.7234 27.5494 21.7234H10.4506C10.1858 21.7234 9.93233 21.7415 9.60432 21.7664ZM9.32245 18.0534C9.63718 18.0295 10.0255 18 10.4506 18H27.5494C30.5472 18 33.1921 18.9931 35.0923 20.8662C36.9925 22.7393 38 25.3465 38 28.3014V38.4041C38 39.4194 37.8874 40.4328 37.6073 41.3976C36.4337 45.9354 32.5466 48.7055 27.5494 48.7055H21.2709L14.1518 53.376C11.7191 55.0123 8.56195 53.2196 8.56195 50.4431V48.5678C6.34712 48.2363 4.40121 47.3115 2.92032 45.8517C1.00896 43.9677 0 41.3613 0 38.4041V28.3014C0 25.5511 0.872246 23.099 2.53737 21.2574C4.20506 19.4129 6.5543 18.3076 9.26769 18.0578L9.29847 18.0549L9.29849 18.0552L9.32245 18.0534Z" fill="#132899"/>
</svg>
