<svg width="64" height="64" viewBox="0 0 64 64" fill="none" xmlns="http://www.w3.org/2000/svg">
<g clip-path="url(#clip0_91_493)">
<path d="M31.8626 64C24.1311 64 16.662 61.1781 10.8415 56.0486C3.94692 49.9659 0 41.1993 0 31.9937C0 24.2305 2.8103 16.7306 7.91881 10.8861C13.9766 3.96316 22.7073 0 31.8751 0C39.6066 0 47.0757 2.82187 52.8962 7.9514C53.6206 8.59103 54.3326 9.26827 54.9945 9.97061C57.6924 12.8176 57.5675 17.32 54.7322 20.0165C51.897 22.7129 47.413 22.6 44.7151 19.7531C44.3404 19.3643 43.9532 18.9755 43.541 18.6243C40.306 15.7774 36.1593 14.1971 31.8626 14.1971C26.7666 14.1971 21.9079 16.4045 18.548 20.2422C15.7127 23.4905 14.139 27.6543 14.139 31.9686C14.139 37.0856 16.3372 41.9643 20.1593 45.338C23.3942 48.185 27.541 49.7652 31.8376 49.7652C36.9336 49.7652 41.7799 47.5705 45.1397 43.7327C45.1522 43.7076 45.1772 43.6951 45.1897 43.67C47.7877 40.7353 52.2592 40.4593 55.1819 43.068C58.0921 45.6641 58.3794 50.1164 55.8189 53.0637L55.7814 53.1013C49.7611 60.0368 41.0304 64 31.8626 64ZM50.5105 48.4107L55.8064 53.1264L50.5105 48.4107Z" fill="#132899"/>
<path d="M40.0687 39.155C40.331 38.8665 40.5808 38.553 40.8056 38.2394L40.0687 39.155Z" fill="#1F42FF"/>
<path d="M40.0687 24.845C40.331 25.1334 40.5683 25.4344 40.7931 25.748L40.0687 24.845Z" fill="#1F42FF"/>
<path d="M64 32.0062C64 35.9318 60.8275 39.1174 56.9181 39.1174C55.3942 39.1174 53.9704 38.6282 52.8088 37.8005C52.559 37.5747 52.3092 37.3615 52.0344 37.1609C50.6355 36.1324 48.8993 35.5179 47.0258 35.5179C44.5652 35.5179 42.3419 36.5714 40.7931 38.252C40.5308 38.5404 40.281 38.8414 40.0562 39.1675C38.1077 41.3247 35.3099 42.6792 32.1749 42.6792C26.3045 42.6792 21.5582 37.9008 21.5582 32.0188C21.5582 26.1242 26.3169 21.3584 32.1749 21.3584C35.2974 21.3584 38.1077 22.7129 40.0562 24.8701C40.281 25.1836 40.5184 25.4971 40.7807 25.7731C42.3294 27.4536 44.5527 28.5071 47.0133 28.5071C48.8868 28.5071 50.623 27.8926 52.0219 26.8642C52.2967 26.6635 52.5465 26.4503 52.7963 26.2246C53.9579 25.3968 55.3693 24.9077 56.9056 24.9077C60.84 24.8951 64 28.0807 64 32.0062Z" fill="#1F42FF"/>
<path d="M52.0468 26.8517C52.2842 26.6259 52.5465 26.4002 52.8212 26.212L52.0468 26.8517Z" fill="#1F42FF"/>
<path d="M52.0468 37.1483C52.2842 37.3866 52.5465 37.5998 52.8212 37.788L52.0468 37.1483Z" fill="#1F42FF"/>
</g>
<defs>
<clipPath id="clip0_91_493">
<rect width="64" height="64" fill="white"/>
</clipPath>
</defs>
</svg>
