<svg width="28" height="28" viewBox="0 0 28 28" fill="none" xmlns="http://www.w3.org/2000/svg">
<path d="M24.24 0.559998H3.76C1.9936 0.559998 0.559998 1.9936 0.559998 3.76V24.24C0.559998 26.0064 1.9936 27.44 3.76 27.44H24.24C26.0064 27.44 27.44 26.0064 27.44 24.24V3.76C27.44 1.9936 26.0064 0.559998 24.24 0.559998ZM8.88 10.8V22.96H5.04V10.8H8.88ZM5.04 7.2608C5.04 6.3648 5.808 5.68 6.96 5.68C8.112 5.68 8.8352 6.3648 8.88 7.2608C8.88 8.1568 8.1632 8.88 6.96 8.88C5.808 8.88 5.04 8.1568 5.04 7.2608ZM22.96 22.96H19.12C19.12 22.96 19.12 17.0336 19.12 16.56C19.12 15.28 18.48 14 16.88 13.9744H16.8288C15.28 13.9744 14.64 15.2928 14.64 16.56C14.64 17.1424 14.64 22.96 14.64 22.96H10.8V10.8H14.64V12.4384C14.64 12.4384 15.8752 10.8 18.3584 10.8C20.8992 10.8 22.96 12.5472 22.96 16.0864V22.96Z" fill="#2867B2"/>
</svg>
